STARTFONT 2.1
FONT --Los Angeles-Regular-R-Normal--14-120-84-84-P-67-APPLE-ROMAN
SIZE 12 84 84
FONTBOUNDINGBOX 10 14 0 -3
METRICSSET 2
STARTPROPERTIES 19
FONT_ASCENT 11
FONT_DESCENT 3
PIXEL_SIZE 14
RESOLUTION_X 84
RESOLUTION_Y 84
POINT_SIZE 120
FACE_NAME "Los Angeles Regular 12"
FOUNDRY ""
FAMILY_NAME "Los Angeles"
WEIGHT_NAME "Regular"
RELATIVE_WEIGHT 50
SLANT "R"
SPACING "P"
SETWIDTH_NAME "Normal"
RELATIVE_SETWIDTH 50
ADD_STYLE_NAME ""
AVERAGE_WIDTH 67
CHARSET_REGISTRY "APPLE"
CHARSET_ENCODING "ROMAN"
ENDPROPERTIES
CHARS 158
STARTCHAR char00
ENCODING 0
SWIDTH 0 0
DWIDTH 0 0
BBX 0 0 0 -3
VVECTOR 0 -3
SWIDTH1 0 0
DWIDTH1 0 0
BITMAP 
ENDCHAR
STARTCHAR char01
ENCODING 1
SWIDTH 71 0
DWIDTH 1 0
BBX 0 0 1 -3
VVECTOR 1 -3
SWIDTH1 0 0
DWIDTH1 0 0
BITMAP 
ENDCHAR
STARTCHAR char02
ENCODING 2
SWIDTH 0 0
DWIDTH 0 0
BBX 0 0 0 -3
VVECTOR 0 -3
SWIDTH1 0 0
DWIDTH1 0 0
BITMAP 
ENDCHAR
STARTCHAR char03
ENCODING 3
SWIDTH 0 0
DWIDTH 0 0
BBX 0 0 0 -3
VVECTOR 0 -3
SWIDTH1 0 0
DWIDTH1 0 0
BITMAP 
ENDCHAR
STARTCHAR char04
ENCODING 4
SWIDTH 0 0
DWIDTH 0 0
BBX 0 0 0 -3
VVECTOR 0 -3
SWIDTH1 0 0
DWIDTH1 0 0
BITMAP 
ENDCHAR
STARTCHAR char05
ENCODING 5
SWIDTH 0 0
DWIDTH 0 0
BBX 0 0 0 -3
VVECTOR 0 -3
SWIDTH1 0 0
DWIDTH1 0 0
BITMAP 
ENDCHAR
STARTCHAR char09
ENCODING 9
SWIDTH 0 0
DWIDTH 0 0
BBX 0 0 0 -3
VVECTOR 0 -3
SWIDTH1 0 0
DWIDTH1 0 0
BITMAP 
ENDCHAR
STARTCHAR char0D
ENCODING 13
SWIDTH 0 0
DWIDTH 0 0
BBX 0 0 0 -3
VVECTOR 0 -3
SWIDTH1 0 0
DWIDTH1 0 0
BITMAP 
ENDCHAR
STARTCHAR space
ENCODING 32
SWIDTH 286 0
DWIDTH 4 0
BBX 0 0 4 -3
VVECTOR 4 -3
SWIDTH1 0 0
DWIDTH1 0 0
BITMAP 
ENDCHAR
STARTCHAR exclam
ENCODING 33
SWIDTH 357 0
DWIDTH 5 0
BBX 2 9 2 0
VVECTOR 3 11
SWIDTH1 0 -1000
DWIDTH1 0 -14
BITMAP 
40
40
40
40
80
80
80
00
80
ENDCHAR
STARTCHAR quotedbl
ENCODING 34
SWIDTH 357 0
DWIDTH 5 0
BBX 3 3 1 7
VVECTOR 3 11
SWIDTH1 0 -1000
DWIDTH1 0 -14
BITMAP 
A0
A0
A0
ENDCHAR
STARTCHAR numbersign
ENCODING 35
SWIDTH 643 0
DWIDTH 9 0
BBX 7 7 1 3
VVECTOR 5 11
SWIDTH1 0 -1000
DWIDTH1 0 -14
BITMAP 
02
14
7E
28
FC
48
40
ENDCHAR
STARTCHAR dollar
ENCODING 36
SWIDTH 500 0
DWIDTH 7 0
BBX 6 11 0 -1
VVECTOR 3 11
SWIDTH1 0 -1000
DWIDTH1 0 -14
BITMAP 
08
38
54
50
30
10
28
24
A4
78
20
ENDCHAR
STARTCHAR percent
ENCODING 37
SWIDTH 643 0
DWIDTH 9 0
BBX 8 9 0 0
VVECTOR 4 11
SWIDTH1 0 -1000
DWIDTH1 0 -14
BITMAP 
3E
51
92
64
08
16
29
49
86
ENDCHAR
STARTCHAR ampersand
ENCODING 38
SWIDTH 643 0
DWIDTH 9 0
BBX 8 10 0 0
VVECTOR 4 11
SWIDTH1 0 -1000
DWIDTH1 0 -14
BITMAP 
18
24
24
28
30
50
8A
84
8A
71
ENDCHAR
STARTCHAR quotesingle
ENCODING 39
SWIDTH 214 0
DWIDTH 3 0
BBX 1 3 1 7
VVECTOR 2 11
SWIDTH1 0 -1000
DWIDTH1 0 -14
BITMAP 
80
80
80
ENDCHAR
STARTCHAR parenleft
ENCODING 40
SWIDTH 357 0
DWIDTH 5 0
BBX 4 12 1 -2
VVECTOR 3 11
SWIDTH1 0 -1000
DWIDTH1 0 -14
BITMAP 
10
20
40
40
80
80
80
80
80
40
40
20
ENDCHAR
STARTCHAR parenright
ENCODING 41
SWIDTH 357 0
DWIDTH 5 0
BBX 4 12 1 -2
VVECTOR 3 11
SWIDTH1 0 -1000
DWIDTH1 0 -14
BITMAP 
40
20
10
10
10
10
10
10
20
20
40
80
ENDCHAR
STARTCHAR asterisk
ENCODING 42
SWIDTH 571 0
DWIDTH 8 0
BBX 7 6 0 3
VVECTOR 4 11
SWIDTH1 0 -1000
DWIDTH1 0 -14
BITMAP 
44
28
FE
28
44
02
ENDCHAR
STARTCHAR plus
ENCODING 43
SWIDTH 500 0
DWIDTH 7 0
BBX 5 5 1 2
VVECTOR 4 11
SWIDTH1 0 -1000
DWIDTH1 0 -14
BITMAP 
20
20
F8
20
20
ENDCHAR
STARTCHAR comma
ENCODING 44
SWIDTH 286 0
DWIDTH 4 0
BBX 2 3 1 -2
VVECTOR 2 11
SWIDTH1 0 -1000
DWIDTH1 0 -14
BITMAP 
40
40
80
ENDCHAR
STARTCHAR hyphen
ENCODING 45
SWIDTH 500 0
DWIDTH 7 0
BBX 6 1 1 4
VVECTOR 4 11
SWIDTH1 0 -1000
DWIDTH1 0 -14
BITMAP 
FC
ENDCHAR
STARTCHAR period
ENCODING 46
SWIDTH 214 0
DWIDTH 3 0
BBX 1 1 1 0
VVECTOR 2 11
SWIDTH1 0 -1000
DWIDTH1 0 -14
BITMAP 
80
ENDCHAR
STARTCHAR slash
ENCODING 47
SWIDTH 500 0
DWIDTH 7 0
BBX 5 10 1 0
VVECTOR 4 11
SWIDTH1 0 -1000
DWIDTH1 0 -14
BITMAP 
08
08
10
10
20
20
40
40
80
80
ENDCHAR
STARTCHAR zero
ENCODING 48
SWIDTH 571 0
DWIDTH 8 0
BBX 7 10 0 0
VVECTOR 4 11
SWIDTH1 0 -1000
DWIDTH1 0 -14
BITMAP 
18
24
42
42
82
82
82
82
44
38
ENDCHAR
STARTCHAR one
ENCODING 49
SWIDTH 571 0
DWIDTH 8 0
BBX 2 9 3 0
VVECTOR 4 11
SWIDTH1 0 -1000
DWIDTH1 0 -14
BITMAP 
40
40
40
40
40
40
80
80
80
ENDCHAR
STARTCHAR two
ENCODING 50
SWIDTH 571 0
DWIDTH 8 0
BBX 7 9 0 0
VVECTOR 4 11
SWIDTH1 0 -1000
DWIDTH1 0 -14
BITMAP 
3C
42
02
04
18
20
40
80
FC
ENDCHAR
STARTCHAR three
ENCODING 51
SWIDTH 571 0
DWIDTH 8 0
BBX 7 9 0 0
VVECTOR 4 11
SWIDTH1 0 -1000
DWIDTH1 0 -14
BITMAP 
1C
22
04
18
04
02
82
84
78
ENDCHAR
STARTCHAR four
ENCODING 52
SWIDTH 571 0
DWIDTH 8 0
BBX 7 10 0 -1
VVECTOR 4 11
SWIDTH1 0 -1000
DWIDTH1 0 -14
BITMAP 
20
22
42
44
84
FE
04
08
08
08
ENDCHAR
STARTCHAR five
ENCODING 53
SWIDTH 571 0
DWIDTH 8 0
BBX 7 9 0 0
VVECTOR 4 11
SWIDTH1 0 -1000
DWIDTH1 0 -14
BITMAP 
3E
40
80
70
08
04
04
84
78
ENDCHAR
STARTCHAR six
ENCODING 54
SWIDTH 571 0
DWIDTH 8 0
BBX 7 10 0 0
VVECTOR 4 11
SWIDTH1 0 -1000
DWIDTH1 0 -14
BITMAP 
10
20
40
40
9C
A2
C2
82
44
38
ENDCHAR
STARTCHAR seven
ENCODING 55
SWIDTH 571 0
DWIDTH 8 0
BBX 7 9 0 0
VVECTOR 4 11
SWIDTH1 0 -1000
DWIDTH1 0 -14
BITMAP 
7E
82
04
04
08
08
10
10
10
ENDCHAR
STARTCHAR eight
ENCODING 56
SWIDTH 571 0
DWIDTH 8 0
BBX 6 10 0 0
VVECTOR 3 11
SWIDTH1 0 -1000
DWIDTH1 0 -14
BITMAP 
18
24
44
48
30
48
84
84
84
78
ENDCHAR
STARTCHAR nine
ENCODING 57
SWIDTH 571 0
DWIDTH 8 0
BBX 7 10 0 -1
VVECTOR 4 11
SWIDTH1 0 -1000
DWIDTH1 0 -14
BITMAP 
78
84
82
82
42
3E
04
04
08
10
ENDCHAR
STARTCHAR colon
ENCODING 58
SWIDTH 214 0
DWIDTH 3 0
BBX 2 6 1 0
VVECTOR 2 11
SWIDTH1 0 -1000
DWIDTH1 0 -14
BITMAP 
40
00
00
00
00
80
ENDCHAR
STARTCHAR semicolon
ENCODING 59
SWIDTH 286 0
DWIDTH 4 0
BBX 3 8 1 -2
VVECTOR 3 11
SWIDTH1 0 -1000
DWIDTH1 0 -14
BITMAP 
20
20
00
00
00
40
40
80
ENDCHAR
STARTCHAR less
ENCODING 60
SWIDTH 429 0
DWIDTH 6 0
BBX 4 7 2 0
VVECTOR 4 11
SWIDTH1 0 -1000
DWIDTH1 0 -14
BITMAP 
10
20
40
80
80
40
20
ENDCHAR
STARTCHAR equal
ENCODING 61
SWIDTH 500 0
DWIDTH 7 0
BBX 5 3 1 2
VVECTOR 4 11
SWIDTH1 0 -1000
DWIDTH1 0 -14
BITMAP 
F8
00
F8
ENDCHAR
STARTCHAR greater
ENCODING 62
SWIDTH 429 0
DWIDTH 6 0
BBX 4 7 1 0
VVECTOR 3 11
SWIDTH1 0 -1000
DWIDTH1 0 -14
BITMAP 
80
40
20
10
10
20
40
ENDCHAR
STARTCHAR question
ENCODING 63
SWIDTH 571 0
DWIDTH 8 0
BBX 6 9 1 0
VVECTOR 4 11
SWIDTH1 0 -1000
DWIDTH1 0 -14
BITMAP 
78
84
04
08
10
20
40
00
40
ENDCHAR
STARTCHAR at
ENCODING 64
SWIDTH 714 0
DWIDTH 10 0
BBX 8 8 1 0
VVECTOR 5 11
SWIDTH1 0 -1000
DWIDTH1 0 -14
BITMAP 
3E
41
9D
A5
A6
98
42
3C
ENDCHAR
STARTCHAR A
ENCODING 65
SWIDTH 643 0
DWIDTH 9 0
BBX 8 11 0 -1
VVECTOR 4 11
SWIDTH1 0 -1000
DWIDTH1 0 -14
BITMAP 
01
03
05
09
12
12
27
FA
42
82
80
ENDCHAR
STARTCHAR B
ENCODING 66
SWIDTH 643 0
DWIDTH 9 0
BBX 8 10 0 -1
VVECTOR 4 11
SWIDTH1 0 -1000
DWIDTH1 0 -14
BITMAP 
0E
11
11
22
26
21
41
41
82
9C
ENDCHAR
STARTCHAR C
ENCODING 67
SWIDTH 571 0
DWIDTH 8 0
BBX 7 9 0 0
VVECTOR 4 11
SWIDTH1 0 -1000
DWIDTH1 0 -14
BITMAP 
1C
22
44
80
80
80
80
44
38
ENDCHAR
STARTCHAR D
ENCODING 68
SWIDTH 571 0
DWIDTH 8 0
BBX 7 10 0 0
VVECTOR 4 11
SWIDTH1 0 -1000
DWIDTH1 0 -14
BITMAP 
10
78
24
22
42
42
42
82
84
F8
ENDCHAR
STARTCHAR E
ENCODING 69
SWIDTH 500 0
DWIDTH 7 0
BBX 6 9 0 0
VVECTOR 3 11
SWIDTH1 0 -1000
DWIDTH1 0 -14
BITMAP 
1C
20
40
40
78
80
80
80
78
ENDCHAR
STARTCHAR F
ENCODING 70
SWIDTH 500 0
DWIDTH 7 0
BBX 6 9 0 0
VVECTOR 3 11
SWIDTH1 0 -1000
DWIDTH1 0 -14
BITMAP 
1C
20
40
40
78
80
80
80
80
ENDCHAR
STARTCHAR G
ENCODING 71
SWIDTH 571 0
DWIDTH 8 0
BBX 7 9 0 0
VVECTOR 4 11
SWIDTH1 0 -1000
DWIDTH1 0 -14
BITMAP 
0C
30
40
80
8C
92
82
44
38
ENDCHAR
STARTCHAR H
ENCODING 72
SWIDTH 571 0
DWIDTH 8 0
BBX 7 9 0 0
VVECTOR 4 11
SWIDTH1 0 -1000
DWIDTH1 0 -14
BITMAP 
22
22
22
42
7C
44
84
88
88
ENDCHAR
STARTCHAR I
ENCODING 73
SWIDTH 429 0
DWIDTH 6 0
BBX 3 9 2 0
VVECTOR 4 11
SWIDTH1 0 -1000
DWIDTH1 0 -14
BITMAP 
20
20
40
40
40
40
80
80
80
ENDCHAR
STARTCHAR J
ENCODING 74
SWIDTH 500 0
DWIDTH 7 0
BBX 7 9 0 0
VVECTOR 4 11
SWIDTH1 0 -1000
DWIDTH1 0 -14
BITMAP 
0E
34
04
04
04
48
88
88
70
ENDCHAR
STARTCHAR K
ENCODING 75
SWIDTH 571 0
DWIDTH 8 0
BBX 7 9 1 0
VVECTOR 5 11
SWIDTH1 0 -1000
DWIDTH1 0 -14
BITMAP 
22
4C
50
60
40
A0
90
88
84
ENDCHAR
STARTCHAR L
ENCODING 76
SWIDTH 500 0
DWIDTH 7 0
BBX 5 9 1 0
VVECTOR 4 11
SWIDTH1 0 -1000
DWIDTH1 0 -14
BITMAP 
20
20
40
40
40
80
80
80
78
ENDCHAR
STARTCHAR M
ENCODING 77
SWIDTH 786 0
DWIDTH 11 0
BBX 10 10 0 0
VVECTOR 5 11
SWIDTH1 0 -1000
DWIDTH1 0 -14
BITMAP 
0800
1840
18C0
2940
2A40
4A40
4C80
4880
8100
8100
ENDCHAR
STARTCHAR N
ENCODING 78
SWIDTH 714 0
DWIDTH 10 0
BBX 8 9 1 0
VVECTOR 5 11
SWIDTH1 0 -1000
DWIDTH1 0 -14
BITMAP 
21
21
51
52
52
8A
8A
84
84
ENDCHAR
STARTCHAR O
ENCODING 79
SWIDTH 571 0
DWIDTH 8 0
BBX 7 9 0 0
VVECTOR 4 11
SWIDTH1 0 -1000
DWIDTH1 0 -14
BITMAP 
38
44
82
82
82
84
84
48
30
ENDCHAR
STARTCHAR P
ENCODING 80
SWIDTH 571 0
DWIDTH 8 0
BBX 7 9 0 0
VVECTOR 4 11
SWIDTH1 0 -1000
DWIDTH1 0 -14
BITMAP 
1C
22
42
42
84
98
80
80
80
ENDCHAR
STARTCHAR Q
ENCODING 81
SWIDTH 571 0
DWIDTH 8 0
BBX 7 9 0 0
VVECTOR 4 11
SWIDTH1 0 -1000
DWIDTH1 0 -14
BITMAP 
18
24
42
42
82
84
94
48
34
ENDCHAR
STARTCHAR R
ENCODING 82
SWIDTH 571 0
DWIDTH 8 0
BBX 7 10 0 -1
VVECTOR 4 11
SWIDTH1 0 -1000
DWIDTH1 0 -14
BITMAP 
38
44
84
88
F0
A0
90
88
84
02
ENDCHAR
STARTCHAR S
ENCODING 83
SWIDTH 571 0
DWIDTH 8 0
BBX 7 9 0 0
VVECTOR 4 11
SWIDTH1 0 -1000
DWIDTH1 0 -14
BITMAP 
1C
22
20
18
04
42
82
84
78
ENDCHAR
STARTCHAR T
ENCODING 84
SWIDTH 571 0
DWIDTH 8 0
BBX 6 10 1 0
VVECTOR 4 11
SWIDTH1 0 -1000
DWIDTH1 0 -14
BITMAP 
08
FC
10
10
20
20
20
40
40
40
ENDCHAR
STARTCHAR U
ENCODING 85
SWIDTH 643 0
DWIDTH 9 0
BBX 8 9 0 0
VVECTOR 4 11
SWIDTH1 0 -1000
DWIDTH1 0 -14
BITMAP 
21
21
41
42
82
82
82
44
38
ENDCHAR
STARTCHAR V
ENCODING 86
SWIDTH 643 0
DWIDTH 9 0
BBX 7 9 1 0
VVECTOR 5 11
SWIDTH1 0 -1000
DWIDTH1 0 -14
BITMAP 
82
84
84
88
48
50
50
20
20
ENDCHAR
STARTCHAR W
ENCODING 87
SWIDTH 786 0
DWIDTH 11 0
BBX 10 9 0 0
VVECTOR 5 11
SWIDTH1 0 -1000
DWIDTH1 0 -14
BITMAP 
8040
8040
8880
8880
4900
5500
5500
2200
2200
ENDCHAR
STARTCHAR X
ENCODING 88
SWIDTH 500 0
DWIDTH 7 0
BBX 6 10 0 0
VVECTOR 3 11
SWIDTH1 0 -1000
DWIDTH1 0 -14
BITMAP 
04
44
28
28
10
10
28
48
44
84
ENDCHAR
STARTCHAR Y
ENCODING 89
SWIDTH 500 0
DWIDTH 7 0
BBX 6 9 0 0
VVECTOR 3 11
SWIDTH1 0 -1000
DWIDTH1 0 -14
BITMAP 
84
44
28
28
10
10
10
20
20
ENDCHAR
STARTCHAR Z
ENCODING 90
SWIDTH 500 0
DWIDTH 7 0
BBX 6 9 0 0
VVECTOR 3 11
SWIDTH1 0 -1000
DWIDTH1 0 -14
BITMAP 
3C
C4
08
10
10
20
40
8C
F0
ENDCHAR
STARTCHAR bracketleft
ENCODING 91
SWIDTH 429 0
DWIDTH 6 0
BBX 4 11 1 -1
VVECTOR 3 11
SWIDTH1 0 -1000
DWIDTH1 0 -14
BITMAP 
30
40
40
40
40
80
80
80
80
80
60
ENDCHAR
STARTCHAR backslash
ENCODING 92
SWIDTH 500 0
DWIDTH 7 0
BBX 3 11 2 -1
VVECTOR 4 11
SWIDTH1 0 -1000
DWIDTH1 0 -14
BITMAP 
80
80
80
40
40
40
40
20
20
20
20
ENDCHAR
STARTCHAR bracketright
ENCODING 93
SWIDTH 429 0
DWIDTH 6 0
BBX 5 11 1 -1
VVECTOR 4 11
SWIDTH1 0 -1000
DWIDTH1 0 -14
BITMAP 
30
08
08
08
10
10
10
20
20
20
C0
ENDCHAR
STARTCHAR asciicircum
ENCODING 94
SWIDTH 286 0
DWIDTH 4 0
BBX 3 2 1 7
VVECTOR 3 11
SWIDTH1 0 -1000
DWIDTH1 0 -14
BITMAP 
40
A0
ENDCHAR
STARTCHAR underscore
ENCODING 95
SWIDTH 571 0
DWIDTH 8 0
BBX 8 1 0 0
VVECTOR 4 11
SWIDTH1 0 -1000
DWIDTH1 0 -14
BITMAP 
FF
ENDCHAR
STARTCHAR char60
ENCODING 96
SWIDTH 0 0
DWIDTH 0 0
BBX 0 0 0 -3
VVECTOR 0 -3
SWIDTH1 0 0
DWIDTH1 0 0
BITMAP 
ENDCHAR
STARTCHAR a
ENCODING 97
SWIDTH 571 0
DWIDTH 8 0
BBX 7 7 0 0
VVECTOR 4 11
SWIDTH1 0 -1000
DWIDTH1 0 -14
BITMAP 
1E
22
42
84
84
8C
74
ENDCHAR
STARTCHAR b
ENCODING 98
SWIDTH 571 0
DWIDTH 8 0
BBX 7 10 0 0
VVECTOR 4 11
SWIDTH1 0 -1000
DWIDTH1 0 -14
BITMAP 
20
20
40
58
64
42
42
82
84
B8
ENDCHAR
STARTCHAR c
ENCODING 99
SWIDTH 500 0
DWIDTH 7 0
BBX 6 7 0 0
VVECTOR 3 11
SWIDTH1 0 -1000
DWIDTH1 0 -14
BITMAP 
38
44
88
80
80
88
70
ENDCHAR
STARTCHAR d
ENCODING 100
SWIDTH 500 0
DWIDTH 7 0
BBX 7 10 0 0
VVECTOR 4 11
SWIDTH1 0 -1000
DWIDTH1 0 -14
BITMAP 
02
02
04
04
3C
44
84
88
88
70
ENDCHAR
STARTCHAR e
ENCODING 101
SWIDTH 500 0
DWIDTH 7 0
BBX 6 7 0 0
VVECTOR 3 11
SWIDTH1 0 -1000
DWIDTH1 0 -14
BITMAP 
38
44
84
F8
80
88
70
ENDCHAR
STARTCHAR f
ENCODING 102
SWIDTH 429 0
DWIDTH 6 0
BBX 5 10 1 0
VVECTOR 4 11
SWIDTH1 0 -1000
DWIDTH1 0 -14
BITMAP 
18
20
40
40
F0
40
40
80
80
80
ENDCHAR
STARTCHAR g
ENCODING 103
SWIDTH 500 0
DWIDTH 7 0
BBX 6 10 0 -3
VVECTOR 3 11
SWIDTH1 0 -1000
DWIDTH1 0 -14
BITMAP 
18
24
44
44
8C
94
68
08
90
60
ENDCHAR
STARTCHAR h
ENCODING 104
SWIDTH 500 0
DWIDTH 7 0
BBX 6 10 0 0
VVECTOR 3 11
SWIDTH1 0 -1000
DWIDTH1 0 -14
BITMAP 
20
40
40
98
A4
C4
C4
88
88
90
ENDCHAR
STARTCHAR i
ENCODING 105
SWIDTH 286 0
DWIDTH 4 0
BBX 3 9 1 0
VVECTOR 3 11
SWIDTH1 0 -1000
DWIDTH1 0 -14
BITMAP 
20
00
40
40
40
40
80
80
80
ENDCHAR
STARTCHAR j
ENCODING 106
SWIDTH 429 0
DWIDTH 6 0
BBX 6 12 0 -3
VVECTOR 3 11
SWIDTH1 0 -1000
DWIDTH1 0 -14
BITMAP 
04
00
04
04
04
08
08
08
10
10
90
60
ENDCHAR
STARTCHAR k
ENCODING 107
SWIDTH 429 0
DWIDTH 6 0
BBX 5 9 0 0
VVECTOR 3 11
SWIDTH1 0 -1000
DWIDTH1 0 -14
BITMAP 
20
20
40
48
50
60
A0
90
88
ENDCHAR
STARTCHAR l
ENCODING 108
SWIDTH 286 0
DWIDTH 4 0
BBX 3 9 0 0
VVECTOR 2 11
SWIDTH1 0 -1000
DWIDTH1 0 -14
BITMAP 
20
20
20
40
40
40
80
80
80
ENDCHAR
STARTCHAR m
ENCODING 109
SWIDTH 786 0
DWIDTH 11 0
BBX 10 7 0 0
VVECTOR 5 11
SWIDTH1 0 -1000
DWIDTH1 0 -14
BITMAP 
5800
6780
4440
4440
8840
8880
8880
ENDCHAR
STARTCHAR n
ENCODING 110
SWIDTH 500 0
DWIDTH 7 0
BBX 6 7 0 0
VVECTOR 3 11
SWIDTH1 0 -1000
DWIDTH1 0 -14
BITMAP 
58
64
44
84
84
88
88
ENDCHAR
STARTCHAR o
ENCODING 111
SWIDTH 500 0
DWIDTH 7 0
BBX 6 7 0 0
VVECTOR 3 11
SWIDTH1 0 -1000
DWIDTH1 0 -14
BITMAP 
18
24
44
84
84
88
70
ENDCHAR
STARTCHAR p
ENCODING 112
SWIDTH 571 0
DWIDTH 8 0
BBX 7 10 0 -3
VVECTOR 4 11
SWIDTH1 0 -1000
DWIDTH1 0 -14
BITMAP 
28
34
22
22
22
44
58
40
80
80
ENDCHAR
STARTCHAR q
ENCODING 113
SWIDTH 500 0
DWIDTH 7 0
BBX 6 10 0 -3
VVECTOR 3 11
SWIDTH1 0 -1000
DWIDTH1 0 -14
BITMAP 
34
4C
44
84
8C
94
68
08
10
10
ENDCHAR
STARTCHAR r
ENCODING 114
SWIDTH 429 0
DWIDTH 6 0
BBX 6 7 0 0
VVECTOR 3 11
SWIDTH1 0 -1000
DWIDTH1 0 -14
BITMAP 
5C
60
40
40
80
80
80
ENDCHAR
STARTCHAR s
ENCODING 115
SWIDTH 500 0
DWIDTH 7 0
BBX 6 7 0 0
VVECTOR 3 11
SWIDTH1 0 -1000
DWIDTH1 0 -14
BITMAP 
18
24
40
38
04
88
70
ENDCHAR
STARTCHAR t
ENCODING 116
SWIDTH 429 0
DWIDTH 6 0
BBX 5 9 0 0
VVECTOR 3 11
SWIDTH1 0 -1000
DWIDTH1 0 -14
BITMAP 
10
10
F8
20
20
20
40
40
40
ENDCHAR
STARTCHAR u
ENCODING 117
SWIDTH 571 0
DWIDTH 8 0
BBX 7 7 0 0
VVECTOR 4 11
SWIDTH1 0 -1000
DWIDTH1 0 -14
BITMAP 
22
42
44
84
8C
94
64
ENDCHAR
STARTCHAR v
ENCODING 118
SWIDTH 500 0
DWIDTH 7 0
BBX 7 8 0 0
VVECTOR 4 11
SWIDTH1 0 -1000
DWIDTH1 0 -14
BITMAP 
02
84
84
88
48
50
20
20
ENDCHAR
STARTCHAR w
ENCODING 119
SWIDTH 714 0
DWIDTH 10 0
BBX 9 7 0 0
VVECTOR 5 11
SWIDTH1 0 -1000
DWIDTH1 0 -14
BITMAP 
0080
9100
9100
AA00
AA00
4400
4400
ENDCHAR
STARTCHAR x
ENCODING 120
SWIDTH 500 0
DWIDTH 7 0
BBX 6 8 0 -1
VVECTOR 3 11
SWIDTH1 0 -1000
DWIDTH1 0 -14
BITMAP 
44
48
28
10
28
48
44
80
ENDCHAR
STARTCHAR y
ENCODING 121
SWIDTH 500 0
DWIDTH 7 0
BBX 6 10 0 -3
VVECTOR 3 11
SWIDTH1 0 -1000
DWIDTH1 0 -14
BITMAP 
84
84
88
50
50
20
20
40
40
80
ENDCHAR
STARTCHAR z
ENCODING 122
SWIDTH 500 0
DWIDTH 7 0
BBX 6 7 0 0
VVECTOR 3 11
SWIDTH1 0 -1000
DWIDTH1 0 -14
BITMAP 
7C
88
10
20
40
84
F8
ENDCHAR
STARTCHAR braceleft
ENCODING 123
SWIDTH 357 0
DWIDTH 5 0
BBX 5 13 0 -2
VVECTOR 3 11
SWIDTH1 0 -1000
DWIDTH1 0 -14
BITMAP 
18
20
20
40
40
40
80
40
40
40
40
40
30
ENDCHAR
STARTCHAR bar
ENCODING 124
SWIDTH 286 0
DWIDTH 4 0
BBX 3 13 1 -2
VVECTOR 3 11
SWIDTH1 0 -1000
DWIDTH1 0 -14
BITMAP 
20
20
20
20
40
40
40
40
40
40
80
80
80
ENDCHAR
STARTCHAR braceright
ENCODING 125
SWIDTH 357 0
DWIDTH 5 0
BBX 4 13 1 -2
VVECTOR 3 11
SWIDTH1 0 -1000
DWIDTH1 0 -14
BITMAP 
40
20
20
20
20
10
20
20
20
20
40
40
80
ENDCHAR
STARTCHAR asciitilde
ENCODING 126
SWIDTH 571 0
DWIDTH 8 0
BBX 7 2 1 7
VVECTOR 5 11
SWIDTH1 0 -1000
DWIDTH1 0 -14
BITMAP 
72
8C
ENDCHAR
STARTCHAR char7F
ENCODING 127
SWIDTH 0 0
DWIDTH 0 0
BBX 0 0 0 -3
VVECTOR 0 -3
SWIDTH1 0 0
DWIDTH1 0 0
BITMAP 
ENDCHAR
STARTCHAR Adieresis
ENCODING 128
SWIDTH 643 0
DWIDTH 9 0
BBX 9 12 0 -1
VVECTOR 5 11
SWIDTH1 0 -1000
DWIDTH1 0 -14
BITMAP 
0280
0000
0300
0500
0900
1200
1200
2700
FA00
4200
8200
8000
ENDCHAR
STARTCHAR Aring
ENCODING 129
SWIDTH 571 0
DWIDTH 8 0
BBX 7 12 0 -1
VVECTOR 4 11
SWIDTH1 0 -1000
DWIDTH1 0 -14
BITMAP 
0C
12
0C
04
0C
14
24
4E
74
84
84
84
ENDCHAR
STARTCHAR Ccedilla
ENCODING 130
SWIDTH 571 0
DWIDTH 8 0
BBX 7 12 0 -3
VVECTOR 4 11
SWIDTH1 0 -1000
DWIDTH1 0 -14
BITMAP 
1C
22
42
84
80
80
80
44
38
10
10
60
ENDCHAR
STARTCHAR Eacute
ENCODING 131
SWIDTH 500 0
DWIDTH 7 0
BBX 6 11 0 0
VVECTOR 3 11
SWIDTH1 0 -1000
DWIDTH1 0 -14
BITMAP 
08
10
00
3C
40
40
F8
80
80
80
78
ENDCHAR
STARTCHAR Ntilde
ENCODING 132
SWIDTH 643 0
DWIDTH 9 0
BBX 8 12 0 -1
VVECTOR 4 11
SWIDTH1 0 -1000
DWIDTH1 0 -14
BITMAP 
39
46
00
22
52
52
52
4A
8A
8A
84
80
ENDCHAR
STARTCHAR Odieresis
ENCODING 133
SWIDTH 571 0
DWIDTH 8 0
BBX 7 11 0 0
VVECTOR 4 11
SWIDTH1 0 -1000
DWIDTH1 0 -14
BITMAP 
24
00
38
44
82
82
82
82
84
44
38
ENDCHAR
STARTCHAR Udieresis
ENCODING 134
SWIDTH 643 0
DWIDTH 9 0
BBX 7 11 1 0
VVECTOR 5 11
SWIDTH1 0 -1000
DWIDTH1 0 -14
BITMAP 
24
00
42
42
42
82
82
82
82
44
38
ENDCHAR
STARTCHAR aacute
ENCODING 135
SWIDTH 571 0
DWIDTH 8 0
BBX 7 10 0 0
VVECTOR 4 11
SWIDTH1 0 -1000
DWIDTH1 0 -14
BITMAP 
04
08
00
1E
22
42
82
84
8C
74
ENDCHAR
STARTCHAR agrave
ENCODING 136
SWIDTH 571 0
DWIDTH 8 0
BBX 7 10 0 0
VVECTOR 4 11
SWIDTH1 0 -1000
DWIDTH1 0 -14
BITMAP 
08
04
00
1E
22
42
82
84
8C
74
ENDCHAR
STARTCHAR acircumflex
ENCODING 137
SWIDTH 571 0
DWIDTH 8 0
BBX 7 10 0 0
VVECTOR 4 11
SWIDTH1 0 -1000
DWIDTH1 0 -14
BITMAP 
0C
12
00
1E
22
42
84
84
8C
74
ENDCHAR
STARTCHAR adieresis
ENCODING 138
SWIDTH 571 0
DWIDTH 8 0
BBX 7 9 0 0
VVECTOR 4 11
SWIDTH1 0 -1000
DWIDTH1 0 -14
BITMAP 
12
00
1E
22
42
82
84
8C
74
ENDCHAR
STARTCHAR atilde
ENCODING 139
SWIDTH 571 0
DWIDTH 8 0
BBX 7 10 0 0
VVECTOR 4 11
SWIDTH1 0 -1000
DWIDTH1 0 -14
BITMAP 
32
4C
00
1E
22
42
82
84
8C
74
ENDCHAR
STARTCHAR aring
ENCODING 140
SWIDTH 571 0
DWIDTH 8 0
BBX 7 11 0 0
VVECTOR 4 11
SWIDTH1 0 -1000
DWIDTH1 0 -14
BITMAP 
0C
12
0C
00
1E
22
42
82
84
8C
74
ENDCHAR
STARTCHAR ccedilla
ENCODING 141
SWIDTH 500 0
DWIDTH 7 0
BBX 6 10 0 -3
VVECTOR 3 11
SWIDTH1 0 -1000
DWIDTH1 0 -14
BITMAP 
38
44
88
80
80
88
70
20
10
60
ENDCHAR
STARTCHAR eacute
ENCODING 142
SWIDTH 500 0
DWIDTH 7 0
BBX 6 10 0 0
VVECTOR 3 11
SWIDTH1 0 -1000
DWIDTH1 0 -14
BITMAP 
08
10
00
38
44
88
F0
80
88
70
ENDCHAR
STARTCHAR egrave
ENCODING 143
SWIDTH 500 0
DWIDTH 7 0
BBX 6 10 0 0
VVECTOR 3 11
SWIDTH1 0 -1000
DWIDTH1 0 -14
BITMAP 
20
10
00
38
44
88
F0
80
88
70
ENDCHAR
STARTCHAR ecircumflex
ENCODING 144
SWIDTH 500 0
DWIDTH 7 0
BBX 6 10 0 0
VVECTOR 3 11
SWIDTH1 0 -1000
DWIDTH1 0 -14
BITMAP 
30
48
00
38
44
88
F0
80
88
70
ENDCHAR
STARTCHAR edieresis
ENCODING 145
SWIDTH 500 0
DWIDTH 7 0
BBX 6 9 0 0
VVECTOR 3 11
SWIDTH1 0 -1000
DWIDTH1 0 -14
BITMAP 
28
00
38
44
88
F0
80
88
70
ENDCHAR
STARTCHAR iacute
ENCODING 146
SWIDTH 357 0
DWIDTH 5 0
BBX 4 10 0 0
VVECTOR 2 11
SWIDTH1 0 -1000
DWIDTH1 0 -14
BITMAP 
10
20
00
20
20
40
40
40
80
80
ENDCHAR
STARTCHAR igrave
ENCODING 147
SWIDTH 357 0
DWIDTH 5 0
BBX 3 10 1 0
VVECTOR 3 11
SWIDTH1 0 -1000
DWIDTH1 0 -14
BITMAP 
40
20
00
20
20
40
40
40
80
80
ENDCHAR
STARTCHAR icircumflex
ENCODING 148
SWIDTH 357 0
DWIDTH 5 0
BBX 4 10 1 0
VVECTOR 3 11
SWIDTH1 0 -1000
DWIDTH1 0 -14
BITMAP 
60
90
00
20
20
40
40
40
80
80
ENDCHAR
STARTCHAR idieresis
ENCODING 149
SWIDTH 357 0
DWIDTH 5 0
BBX 4 9 0 0
VVECTOR 2 11
SWIDTH1 0 -1000
DWIDTH1 0 -14
BITMAP 
50
00
20
20
40
40
40
80
80
ENDCHAR
STARTCHAR ntilde
ENCODING 150
SWIDTH 500 0
DWIDTH 7 0
BBX 6 10 0 0
VVECTOR 3 11
SWIDTH1 0 -1000
DWIDTH1 0 -14
BITMAP 
64
98
00
58
64
44
84
84
88
88
ENDCHAR
STARTCHAR oacute
ENCODING 151
SWIDTH 500 0
DWIDTH 7 0
BBX 6 10 0 0
VVECTOR 3 11
SWIDTH1 0 -1000
DWIDTH1 0 -14
BITMAP 
08
10
00
38
44
84
84
84
88
70
ENDCHAR
STARTCHAR ograve
ENCODING 152
SWIDTH 500 0
DWIDTH 7 0
BBX 6 10 0 0
VVECTOR 3 11
SWIDTH1 0 -1000
DWIDTH1 0 -14
BITMAP 
20
10
00
38
44
84
84
84
88
70
ENDCHAR
STARTCHAR ocircumflex
ENCODING 153
SWIDTH 500 0
DWIDTH 7 0
BBX 6 10 0 0
VVECTOR 3 11
SWIDTH1 0 -1000
DWIDTH1 0 -14
BITMAP 
30
48
00
38
44
84
84
84
88
70
ENDCHAR
STARTCHAR odieresis
ENCODING 154
SWIDTH 500 0
DWIDTH 7 0
BBX 6 9 0 0
VVECTOR 3 11
SWIDTH1 0 -1000
DWIDTH1 0 -14
BITMAP 
48
00
38
44
84
84
84
88
70
ENDCHAR
STARTCHAR otilde
ENCODING 155
SWIDTH 500 0
DWIDTH 7 0
BBX 6 10 0 0
VVECTOR 3 11
SWIDTH1 0 -1000
DWIDTH1 0 -14
BITMAP 
64
98
00
38
44
84
84
84
88
70
ENDCHAR
STARTCHAR uacute
ENCODING 156
SWIDTH 571 0
DWIDTH 8 0
BBX 7 10 0 0
VVECTOR 4 11
SWIDTH1 0 -1000
DWIDTH1 0 -14
BITMAP 
04
08
00
22
42
44
84
84
8C
74
ENDCHAR
STARTCHAR ugrave
ENCODING 157
SWIDTH 571 0
DWIDTH 8 0
BBX 7 10 0 0
VVECTOR 4 11
SWIDTH1 0 -1000
DWIDTH1 0 -14
BITMAP 
10
08
00
22
42
44
84
84
8C
74
ENDCHAR
STARTCHAR ucircumflex
ENCODING 158
SWIDTH 571 0
DWIDTH 8 0
BBX 7 10 0 0
VVECTOR 4 11
SWIDTH1 0 -1000
DWIDTH1 0 -14
BITMAP 
0C
12
00
22
42
42
84
84
8C
74
ENDCHAR
STARTCHAR udieresis
ENCODING 159
SWIDTH 571 0
DWIDTH 8 0
BBX 7 9 0 0
VVECTOR 4 11
SWIDTH1 0 -1000
DWIDTH1 0 -14
BITMAP 
14
00
22
42
44
84
84
8C
74
ENDCHAR
STARTCHAR degree
ENCODING 161
SWIDTH 429 0
DWIDTH 6 0
BBX 4 4 1 5
VVECTOR 3 11
SWIDTH1 0 -1000
DWIDTH1 0 -14
BITMAP 
60
90
90
60
ENDCHAR
STARTCHAR cent
ENCODING 162
SWIDTH 500 0
DWIDTH 7 0
BBX 6 10 1 -1
VVECTOR 4 11
SWIDTH1 0 -1000
DWIDTH1 0 -14
BITMAP 
10
10
38
54
90
A0
A0
A8
70
40
ENDCHAR
STARTCHAR bullet
ENCODING 165
SWIDTH 571 0
DWIDTH 8 0
BBX 6 6 1 1
VVECTOR 4 11
SWIDTH1 0 -1000
DWIDTH1 0 -14
BITMAP 
38
7C
FC
FC
F8
70
ENDCHAR
STARTCHAR acute
ENCODING 171
SWIDTH 286 0
DWIDTH 4 0
BBX 2 2 1 7
VVECTOR 2 11
SWIDTH1 0 -1000
DWIDTH1 0 -14
BITMAP 
40
80
ENDCHAR
STARTCHAR dieresis
ENCODING 172
SWIDTH 357 0
DWIDTH 5 0
BBX 4 1 1 8
VVECTOR 3 11
SWIDTH1 0 -1000
DWIDTH1 0 -14
BITMAP 
90
ENDCHAR
STARTCHAR Oslash
ENCODING 175
SWIDTH 571 0
DWIDTH 8 0
BBX 8 10 0 0
VVECTOR 4 11
SWIDTH1 0 -1000
DWIDTH1 0 -14
BITMAP 
01
1E
22
45
49
51
51
61
62
9C
ENDCHAR
STARTCHAR oslash
ENCODING 191
SWIDTH 571 0
DWIDTH 8 0
BBX 6 9 1 -1
VVECTOR 4 11
SWIDTH1 0 -1000
DWIDTH1 0 -14
BITMAP 
04
38
48
94
A4
A4
C8
70
80
ENDCHAR
STARTCHAR questiondown
ENCODING 192
SWIDTH 500 0
DWIDTH 7 0
BBX 5 9 1 0
VVECTOR 4 11
SWIDTH1 0 -1000
DWIDTH1 0 -14
BITMAP 
10
00
10
10
20
40
80
88
70
ENDCHAR
STARTCHAR exclamdown
ENCODING 193
SWIDTH 286 0
DWIDTH 4 0
BBX 3 9 0 0
VVECTOR 2 11
SWIDTH1 0 -1000
DWIDTH1 0 -14
BITMAP 
20
00
40
40
40
80
80
80
80
ENDCHAR
STARTCHAR ellipsis
ENCODING 201
SWIDTH 714 0
DWIDTH 10 0
BBX 7 1 2 0
VVECTOR 6 11
SWIDTH1 0 -1000
DWIDTH1 0 -14
BITMAP 
92
ENDCHAR
STARTCHAR uni00A0
ENCODING 202
SWIDTH 571 0
DWIDTH 8 0
BBX 0 0 8 -3
VVECTOR 8 -3
SWIDTH1 0 0
DWIDTH1 0 0
BITMAP 
ENDCHAR
STARTCHAR Agrave
ENCODING 203
SWIDTH 643 0
DWIDTH 9 0
BBX 9 12 0 -1
VVECTOR 5 11
SWIDTH1 0 -1000
DWIDTH1 0 -14
BITMAP 
0200
0100
0280
0600
0A00
1200
2200
2F00
F200
4200
8200
8000
ENDCHAR
STARTCHAR Atilde
ENCODING 204
SWIDTH 714 0
DWIDTH 10 0
BBX 9 12 0 -1
VVECTOR 5 11
SWIDTH1 0 -1000
DWIDTH1 0 -14
BITMAP 
0C80
1300
0100
0300
0500
0900
1200
2F00
F200
4200
8200
8000
ENDCHAR
STARTCHAR Otilde
ENCODING 205
SWIDTH 571 0
DWIDTH 8 0
BBX 7 11 0 0
VVECTOR 4 11
SWIDTH1 0 -1000
DWIDTH1 0 -14
BITMAP 
32
4C
00
38
44
42
82
82
84
84
78
ENDCHAR
STARTCHAR endash
ENCODING 208
SWIDTH 429 0
DWIDTH 6 0
BBX 5 1 0 3
VVECTOR 3 11
SWIDTH1 0 -1000
DWIDTH1 0 -14
BITMAP 
F8
ENDCHAR
STARTCHAR emdash
ENCODING 209
SWIDTH 643 0
DWIDTH 9 0
BBX 8 1 0 3
VVECTOR 4 11
SWIDTH1 0 -1000
DWIDTH1 0 -14
BITMAP 
FF
ENDCHAR
STARTCHAR quotedblleft
ENCODING 210
SWIDTH 500 0
DWIDTH 7 0
BBX 5 3 1 7
VVECTOR 4 11
SWIDTH1 0 -1000
DWIDTH1 0 -14
BITMAP 
48
90
A0
ENDCHAR
STARTCHAR quotedblright
ENCODING 211
SWIDTH 500 0
DWIDTH 7 0
BBX 5 3 1 7
VVECTOR 4 11
SWIDTH1 0 -1000
DWIDTH1 0 -14
BITMAP 
28
48
90
ENDCHAR
STARTCHAR quoteleft
ENCODING 212
SWIDTH 286 0
DWIDTH 4 0
BBX 2 3 1 7
VVECTOR 2 11
SWIDTH1 0 -1000
DWIDTH1 0 -14
BITMAP 
80
80
40
ENDCHAR
STARTCHAR quoteright
ENCODING 213
SWIDTH 286 0
DWIDTH 4 0
BBX 2 3 1 7
VVECTOR 2 11
SWIDTH1 0 -1000
DWIDTH1 0 -14
BITMAP 
40
40
80
ENDCHAR
STARTCHAR ydieresis
ENCODING 216
SWIDTH 571 0
DWIDTH 8 0
BBX 6 12 1 -3
VVECTOR 4 11
SWIDTH1 0 -1000
DWIDTH1 0 -14
BITMAP 
28
00
84
84
44
28
28
10
20
20
40
80
ENDCHAR
STARTCHAR missing
ENCODING -1
SWIDTH 571 0
DWIDTH 8 0
BBX 7 8 1 0
VVECTOR 5 11
SWIDTH1 0 -1000
DWIDTH1 0 -14
BITMAP 
FE
82
82
82
82
82
82
FE
ENDCHAR
ENDFONT
